<svg xmlns="http://www.w3.org/2000/svg" height="512pt" version="1.1" viewBox="0 0 512 512" width="512pt">
<g id="surface1">
<path d="M 112.613281 400.328125 L 82.027344 364.851562 C 84.941406 359.035156 86.589844 352.480469 86.589844 345.542969 C 86.589844 321.667969 67.167969 302.246094 43.296875 302.246094 C 19.421875 302.246094 0 321.667969 0 345.542969 C 0 369.414062 19.421875 388.835938 43.296875 388.835938 C 49.269531 388.835938 54.96875 387.617188 60.152344 385.421875 L 98.867188 430.328125 L 181.089844 430.328125 L 181.089844 400.328125 Z M 30 345.542969 C 30 338.210938 35.964844 332.246094 43.296875 332.246094 C 50.625 332.246094 56.589844 338.210938 56.589844 345.542969 C 56.589844 352.871094 50.625 358.835938 43.296875 358.835938 C 35.964844 358.835938 30 352.871094 30 345.542969 Z M 30 345.542969 " style=" stroke:none;fill-rule:nonzero;fill:rgb(0%,86.666667%,75.686275%);fill-opacity:1;" />
<path d="M 468.703125 417.402344 C 462.730469 417.402344 457.03125 418.621094 451.847656 420.820312 L 413.132812 375.914062 L 330.910156 375.914062 L 330.910156 405.914062 L 399.386719 405.914062 L 429.972656 441.386719 C 427.058594 447.207031 425.410156 453.761719 425.410156 460.699219 C 425.410156 484.570312 444.832031 503.992188 468.707031 503.992188 C 492.578125 503.992188 512 484.570312 512 460.699219 C 512 436.824219 492.578125 417.402344 468.703125 417.402344 Z M 468.703125 473.992188 C 461.375 473.992188 455.410156 468.027344 455.410156 460.699219 C 455.410156 453.367188 461.375 447.402344 468.703125 447.402344 C 476.035156 447.402344 482 453.367188 482 460.699219 C 482 468.027344 476.035156 473.992188 468.703125 473.992188 Z M 468.703125 473.992188 " style=" stroke:none;fill-rule:nonzero;fill:rgb(0%,67.058824%,58.039216%);fill-opacity:1;" />
<path d="M 439.191406 183.191406 C 439.191406 253.398438 399.421875 316.808594 336.988281 347.539062 C 336.820312 347.628906 336.640625 347.710938 336.46875 347.800781 L 336.46875 463.878906 L 175.53125 463.878906 L 175.53125 347.800781 C 175.359375 347.710938 175.179688 347.628906 175.011719 347.539062 C 112.578125 316.808594 72.808594 253.398438 72.808594 183.191406 C 72.808594 82.179688 154.988281 0 256 0 C 357.011719 0 439.191406 82.179688 439.191406 183.191406 Z M 439.191406 183.191406 " style=" stroke:none;fill-rule:nonzero;fill:rgb(100%,92.54902%,59.215686%);fill-opacity:1;" />
<path d="M 227.5 482 L 284.5 482 L 284.5 512 L 227.5 512 Z M 227.5 482 " style=" stroke:none;fill-rule:nonzero;fill:rgb(0%,86.666667%,75.686275%);fill-opacity:1;" />
<path d="M 439.191406 183.191406 C 439.191406 253.398438 399.421875 316.808594 336.988281 347.539062 C 336.820312 347.628906 336.640625 347.710938 336.46875 347.800781 L 336.46875 463.878906 L 256 463.878906 L 256 0 C 357.011719 0 439.191406 82.179688 439.191406 183.191406 Z M 439.191406 183.191406 " style=" stroke:none;fill-rule:nonzero;fill:rgb(100%,85.882353%,17.647059%);fill-opacity:1;" />
<path d="M 256 482 L 284.5 482 L 284.5 512 L 256 512 Z M 256 482 " style=" stroke:none;fill-rule:nonzero;fill:rgb(0%,67.058824%,58.039216%);fill-opacity:1;" />
<path d="M 175.53125 359.46875 L 336.46875 359.46875 L 336.46875 463.878906 L 175.53125 463.878906 Z M 175.53125 359.46875 " style=" stroke:none;fill-rule:nonzero;fill:rgb(100%,29.411765%,0%);fill-opacity:1;" />
<path d="M 256 359.46875 L 336.46875 359.46875 L 336.46875 463.878906 L 256 463.878906 Z M 256 359.46875 " style=" stroke:none;fill-rule:nonzero;fill:rgb(77.647059%,12.941176%,0%);fill-opacity:1;" />
<path d="M 336.988281 347.539062 C 336.820312 347.628906 336.640625 347.710938 336.46875 347.800781 L 336.46875 377.539062 L 175.53125 377.539062 L 175.53125 347.800781 C 175.359375 347.710938 175.179688 347.628906 175.011719 347.539062 Z M 336.988281 347.539062 " style=" stroke:none;fill-rule:nonzero;fill:rgb(100%,66.666667%,12.54902%);fill-opacity:1;" />
<path d="M 175.53125 406.050781 L 336.46875 406.050781 L 336.46875 436.050781 L 175.53125 436.050781 Z M 175.53125 406.050781 " style=" stroke:none;fill-rule:nonzero;fill:rgb(100%,66.666667%,12.54902%);fill-opacity:1;" />
<path d="M 314.898438 171.800781 C 319.761719 164.199219 322.589844 155.179688 322.589844 145.511719 C 322.589844 125.660156 310.699219 108.550781 293.671875 100.890625 L 293.671875 69.859375 L 263.671875 69.859375 L 263.671875 96.601562 L 239.46875 96.601562 L 239.46875 69.859375 L 209.46875 69.859375 L 209.46875 96.601562 L 188.960938 96.601562 L 188.960938 126.601562 L 209.46875 126.601562 L 209.46875 232.261719 L 188.960938 232.261719 L 188.960938 262.261719 L 209.46875 262.261719 L 209.46875 288.988281 L 239.46875 288.988281 L 239.46875 262.261719 L 263.671875 262.261719 L 263.671875 288.988281 L 293.671875 288.988281 L 293.671875 262.039062 C 318.519531 259.730469 338.039062 238.78125 338.039062 213.339844 C 338.039062 195.828125 328.78125 180.441406 314.898438 171.800781 Z M 239.46875 126.601562 L 273.679688 126.601562 C 284.109375 126.601562 292.589844 135.078125 292.589844 145.511719 C 292.589844 155.941406 284.109375 164.429688 273.679688 164.429688 L 239.46875 164.429688 Z M 289.121094 232.261719 L 239.46875 232.261719 L 239.46875 194.429688 L 289.121094 194.429688 C 299.550781 194.429688 308.039062 202.910156 308.039062 213.339844 C 308.039062 223.769531 299.550781 232.261719 289.121094 232.261719 Z M 289.121094 232.261719 " style=" stroke:none;fill-rule:nonzero;fill:rgb(100%,66.666667%,12.54902%);fill-opacity:1;" />
<path d="M 338.039062 213.339844 C 338.039062 238.78125 318.519531 259.730469 293.671875 262.039062 L 293.671875 288.988281 L 263.671875 288.988281 L 263.671875 262.261719 L 256 262.261719 L 256 232.261719 L 289.121094 232.261719 C 299.550781 232.261719 308.039062 223.769531 308.039062 213.339844 C 308.039062 202.910156 299.550781 194.429688 289.121094 194.429688 L 256 194.429688 L 256 164.429688 L 273.679688 164.429688 C 284.109375 164.429688 292.589844 155.941406 292.589844 145.511719 C 292.589844 135.078125 284.109375 126.601562 273.679688 126.601562 L 256 126.601562 L 256 96.601562 L 263.671875 96.601562 L 263.671875 69.859375 L 293.671875 69.859375 L 293.671875 100.890625 C 310.699219 108.550781 322.589844 125.660156 322.589844 145.511719 C 322.589844 155.179688 319.761719 164.199219 314.898438 171.800781 C 328.78125 180.441406 338.039062 195.828125 338.039062 213.339844 Z M 338.039062 213.339844 " style=" stroke:none;fill-rule:nonzero;fill:rgb(100%,53.72549%,0%);fill-opacity:1;" />
<path d="M 256 406.050781 L 336.46875 406.050781 L 336.46875 436.050781 L 256 436.050781 Z M 256 406.050781 " style=" stroke:none;fill-rule:nonzero;fill:rgb(100%,53.72549%,0%);fill-opacity:1;" />
<path d="M 256 347.539062 L 336.988281 347.539062 C 336.820312 347.628906 336.640625 347.710938 336.46875 347.800781 L 336.46875 377.539062 L 256 377.539062 Z M 256 347.539062 " style=" stroke:none;fill-rule:nonzero;fill:rgb(100%,53.72549%,0%);fill-opacity:1;" />
</g>
</svg>