<svg xmlns="http://www.w3.org/2000/svg" width="141.598" height="143.832" viewBox="0 0 141.598 143.832">
  <g id="Agrupar_132" data-name="Agrupar 132" transform="translate(-1581.06 -562.587)">
    <path id="Caminho_395" data-name="Caminho 395" d="M517.671,733.419H429.266l-10.4-91.907H529.223Z" transform="translate(1178 -27)" fill="#003cff"/>
    <path id="Caminho_396" data-name="Caminho 396" d="M443.229,725.961a3.242,3.242,0,0,1-3.23-3l-5.19-68.481a3.244,3.244,0,0,1,6.469-.491l5.19,68.481a3.243,3.243,0,0,1-2.99,3.48C443.394,725.958,443.31,725.961,443.229,725.961Z" transform="translate(1178 -27)" fill="#fff" opacity="0.537"/>
    <path id="Caminho_397" data-name="Caminho 397" d="M504.175,725.961c-.092,0-.184,0-.275-.011a3.246,3.246,0,0,1-2.962-3.5l5.769-68.482a3.244,3.244,0,0,1,6.466.543l-5.768,68.482A3.245,3.245,0,0,1,504.175,725.961Z" transform="translate(1178 -27)" fill="#fff" opacity="0.537"/>
    <path id="Caminho_398" data-name="Caminho 398" d="M458.893,725.961a3.24,3.24,0,0,1-3.236-3.1l-2.933-68.483a3.243,3.243,0,0,1,6.481-.278l2.933,68.483a3.244,3.244,0,0,1-3.1,3.379C458.989,725.96,458.942,725.961,458.893,725.961Z" transform="translate(1178 -27)" fill="#fff" opacity="0.537"/>
    <path id="Caminho_399" data-name="Caminho 399" d="M488.806,725.961c-.051,0-.1,0-.154,0a3.246,3.246,0,0,1-3.088-3.4l3.259-68.481a3.245,3.245,0,1,1,6.482.31l-3.259,68.48A3.246,3.246,0,0,1,488.806,725.961Z" transform="translate(1178 -27)" fill="#fff" opacity="0.537"/>
    <path id="Caminho_400" data-name="Caminho 400" d="M473.488,725.961a3.244,3.244,0,0,1-3.245-3.244V654.236a3.244,3.244,0,0,1,6.488,0v68.481A3.243,3.243,0,0,1,473.488,725.961Z" transform="translate(1178 -27)" fill="#fff" opacity="0.537"/>
    <rect id="Ret창ngulo_75" data-name="Ret창ngulo 75" width="74.614" height="18.519" transform="translate(1614.161 595.993)" fill="#0035e0"/>
    <path id="Caminho_401" data-name="Caminho 401" d="M436.161,622.993v18.519H418.87Z" transform="translate(1178 -27)" fill="#3e6cff"/>
    <path id="Caminho_402" data-name="Caminho 402" d="M510.775,622.993v18.519h18.448Z" transform="translate(1178 -27)" fill="#3e6cff"/>
    <path id="Caminho_403" data-name="Caminho 403" d="M529.223,642.691H418.87a1.179,1.179,0,0,1-.862-1.985L435.3,622.187a1.182,1.182,0,0,1,.862-.374h74.614a1.182,1.182,0,0,1,.837.348l18.445,18.518a1.179,1.179,0,0,1-.834,2.012Zm-107.638-2.36h104.8l-16.1-16.158H436.673Z" transform="translate(1178 -27)" fill="#1a171b"/>
    <path id="Caminho_404" data-name="Caminho 404" d="M507.241,604.777s-20.341-7.209-20.855-15.19c0,0-12.358,3.091-21.112,20.34S445.193,633.1,445.193,633.1a56.692,56.692,0,0,1,14.574,7.232h27.8c.651-2.1,1.292-4.415,1.91-6.975C495.14,609.927,507.241,604.777,507.241,604.777Z" transform="translate(1178 -27)" fill="#f9d22a"/>
    <path id="Caminho_405" data-name="Caminho 405" d="M494.493,609.347a1.126,1.126,0,0,1-.163-.011c-8.7-1.222-15.863-8.44-16.165-8.748a1.18,1.18,0,0,1,1.686-1.651c.069.068,6.91,6.955,14.806,8.063a1.179,1.179,0,0,1-.164,2.347Z" transform="translate(1178 -27)" fill="#fff"/>
    <path id="Caminho_406" data-name="Caminho 406" d="M488.152,617.016c-.021,0-.042,0-.064,0-9.529-.513-15.987-7.76-16.257-8.068a1.179,1.179,0,0,1,1.772-1.557c.061.068,6.094,6.812,14.61,7.268a1.18,1.18,0,0,1-.061,2.359Z" transform="translate(1178 -27)" fill="#fff"/>
    <path id="Caminho_407" data-name="Caminho 407" d="M484.318,627.338c-.035,0-.069,0-.106,0-12.746-1.146-18.167-9.505-18.392-9.858a1.18,1.18,0,0,1,1.992-1.264h0c.051.077,5.071,7.735,16.611,8.771a1.18,1.18,0,0,1-.105,2.355Z" transform="translate(1178 -27)" fill="#fff"/>
    <path id="Caminho_408" data-name="Caminho 408" d="M479.009,635.693c-.051,0-.1-.005-.156-.01-12.075-1.61-18.586-8.43-18.855-8.72a1.179,1.179,0,0,1,1.719-1.613,31.2,31.2,0,0,0,17.449,7.994,1.18,1.18,0,0,1-.157,2.349Z" transform="translate(1178 -27)" fill="#fff"/>
    <path id="Caminho_409" data-name="Caminho 409" d="M449.339,617.06l8.95-8.949H453.9V592.776h-9.131v15.335h-4.381Z" transform="translate(1178 -27)" fill="#fa0082"/>
    <path id="Caminho_410" data-name="Caminho 410" d="M528.732,681.214a1.175,1.175,0,1,0-.26,2.335.522.522,0,0,0,.129.012,1.177,1.177,0,0,0,1.17-1.049A1.162,1.162,0,0,0,528.732,681.214Z" transform="translate(1178 -27)" fill="#1a171b"/>
    <path id="Caminho_411" data-name="Caminho 411" d="M522.858,655.968a1.175,1.175,0,0,0,.578,2.2,1.32,1.32,0,0,0,.59-.142,1.189,1.189,0,0,0,.446-1.617A1.177,1.177,0,0,0,522.858,655.968Z" transform="translate(1178 -27)" fill="#1a171b"/>
    <path id="Caminho_412" data-name="Caminho 412" d="M518.246,662.114a1.18,1.18,0,1,0-.98,2.147,1.163,1.163,0,0,0,.484.106,1.181,1.181,0,0,0,.5-2.253Z" transform="translate(1178 -27)" fill="#1a171b"/>
    <path id="Caminho_413" data-name="Caminho 413" d="M517.95,671.317V671.3a1.194,1.194,0,0,0-1.4-.919,1.18,1.18,0,0,0-.918,1.392.082.082,0,0,1,.01.047,1.2,1.2,0,0,0,1.169.944,1.311,1.311,0,0,0,.223-.024,1.173,1.173,0,0,0,.921-1.393C517.95,671.34,517.95,671.329,517.95,671.317Z" transform="translate(1178 -27)" fill="#1a171b"/>
    <path id="Caminho_414" data-name="Caminho 414" d="M520.072,678.111a1.178,1.178,0,1,0,1.676-.083A1.194,1.194,0,0,0,520.072,678.111Z" transform="translate(1178 -27)" fill="#1a171b"/>
    <path id="Caminho_415" data-name="Caminho 415" d="M544.634,665.9a1.18,1.18,0,1,0-1.155,1.416,1.87,1.87,0,0,0,.234-.023A1.182,1.182,0,0,0,544.634,665.9Z" transform="translate(1178 -27)" fill="#1a171b"/>
    <path id="Caminho_416" data-name="Caminho 416" d="M531.823,654.151a1.176,1.176,0,1,0-.272,2.337.53.53,0,0,0,.13.012,1.178,1.178,0,0,0,.142-2.349Z" transform="translate(1178 -27)" fill="#1a171b"/>
    <path id="Caminho_417" data-name="Caminho 417" d="M543.019,673.415a1.181,1.181,0,1,0-.978,2.149,1.146,1.146,0,0,0,.483.1,1.158,1.158,0,0,0,1.073-.684A1.192,1.192,0,0,0,543.019,673.415Z" transform="translate(1178 -27)" fill="#1a171b"/>
    <path id="Caminho_418" data-name="Caminho 418" d="M536.27,679.668a1.2,1.2,0,0,0-.446,1.616,1.17,1.17,0,0,0,1.026.59,1.135,1.135,0,0,0,.578-.153,1.179,1.179,0,0,0-1.158-2.053Z" transform="translate(1178 -27)" fill="#1a171b"/>
    <path id="Caminho_419" data-name="Caminho 419" d="M540.127,657.951a1.165,1.165,0,0,0-1.663.07,1.174,1.174,0,0,0,.874,1.97,1.212,1.212,0,0,0,.874-.378,1.191,1.191,0,0,0-.085-1.675v.013Z" transform="translate(1178 -27)" fill="#1a171b"/>
    <path id="Caminho_420" data-name="Caminho 420" d="M429.137,658.77h-24.9a1.18,1.18,0,1,1,0-2.36h24.9a1.18,1.18,0,1,1,0,2.36Z" transform="translate(1178 -27)" fill="#1a171b"/>
    <path id="Caminho_421" data-name="Caminho 421" d="M429.137,667.672h-24.9a1.18,1.18,0,1,1,0-2.36h24.9a1.18,1.18,0,1,1,0,2.36Z" transform="translate(1178 -27)" fill="#1a171b"/>
    <path id="Caminho_422" data-name="Caminho 422" d="M417.873,676.576H404.241a1.18,1.18,0,1,1,0-2.36h13.632a1.18,1.18,0,0,1,0,2.36Z" transform="translate(1178 -27)" fill="#1a171b"/>
    <circle id="Elipse_17" data-name="Elipse 17" cx="11.211" cy="11.211" r="11.211" transform="translate(1585.755 657.937)" fill="#fff"/>
    <path id="Caminho_423" data-name="Caminho 423" d="M418.967,708.539a12.391,12.391,0,1,1,12.391-12.39A12.405,12.405,0,0,1,418.967,708.539Zm0-22.422A10.031,10.031,0,1,0,429,696.149,10.043,10.043,0,0,0,418.967,686.117Z" transform="translate(1178 -27)" fill="#1be9b6"/>
    <path id="Caminho_424" data-name="Caminho 424" d="M420.634,696.148l3.424-3.422a1.18,1.18,0,1,0-1.668-1.669l-3.423,3.423-3.423-3.423a1.179,1.179,0,0,0-1.667,1.669l3.422,3.422-3.422,3.423a1.179,1.179,0,1,0,1.667,1.668l3.423-3.423,3.423,3.423a1.179,1.179,0,0,0,1.668-1.668Z" transform="translate(1178 -27)" fill="#1a171b"/>
    <rect id="Ret창ngulo_76" data-name="Ret창ngulo 76" width="26.751" height="18.484" transform="translate(1693.846 673.379)" fill="#fff" opacity="0.96"/>
    <path id="Caminho_425" data-name="Caminho 425" d="M542.6,720.042H515.846a1.179,1.179,0,0,1-1.18-1.179V700.379a1.179,1.179,0,0,1,1.18-1.179H542.6a1.179,1.179,0,0,1,1.181,1.179v18.484A1.179,1.179,0,0,1,542.6,720.042Zm-25.572-2.359h24.393V701.559H517.025Z" transform="translate(1178 -27)" fill="#fa0082"/>
    <path id="Caminho_426" data-name="Caminho 426" d="M536.817,707.614H521.625a1.18,1.18,0,0,1,0-2.36h15.192a1.18,1.18,0,0,1,0,2.36Z" transform="translate(1178 -27)" fill="#1a171b"/>
    <path id="Caminho_427" data-name="Caminho 427" d="M531.719,713.987H521.625a1.18,1.18,0,0,1,0-2.36h10.094a1.18,1.18,0,0,1,0,2.36Z" transform="translate(1178 -27)" fill="#1a171b"/>
  </g>
</svg>
